<?xml version="1.0" encoding="iso-8859-1"?>
<!-- Generator: Adobe Illustrator 18.1.1, SVG Export Plug-In . SVG Version: 6.00 Build 0)  -->
<svg version="1.1" id="Capa_1" xmlns="http://www.w3.org/2000/svg" xmlns:xlink="http://www.w3.org/1999/xlink" x="0px" y="0px"
	 viewBox="0 0 79.988 79.988" style="enable-background:new 0 0 79.988 79.988;" xml:space="preserve">
<g id="_x37_7_Essential_Icons_25_">
	<path id="Home" d="M79.215,39.394l-37.8-37.8c-0.7-0.8-2.1-0.8-2.8,0l-38,38c-1.3,1.2-0.4,3.4,1.4,3.4h10v34c0,1.1,0.9,2,2,2h18
		c1.1,0,2-0.9,2-2v-16h12v16c0,1.1,0.9,2,2,2h18c1.1,0,2-0.9,2-2v-34h10l0,0C80.215,42.994,80.515,40.694,79.215,39.394z
		 M64.015,74.994h-14v-16c0-1.1-0.9-2-2-2h-16c-1.1,0-2,0.9-2,2v16h-14v-32h48V74.994z M6.815,38.994l33.2-33.2l33.2,33.2H6.815z"/>
</g>
<g>
</g>
<g>
</g>
<g>
</g>
<g>
</g>
<g>
</g>
<g>
</g>
<g>
</g>
<g>
</g>
<g>
</g>
<g>
</g>
<g>
</g>
<g>
</g>
<g>
</g>
<g>
</g>
<g>
</g>
</svg>
